<?xml version="1.0" encoding="UTF-8" standalone="no"?>
<svg
   height="16"
   id="Layer_1"
   version="1.1"
   viewBox="0 0 16 16"
   width="16"
   xml:space="preserve"
   sodipodi:docname="126572_home_house_icon.svg"
   xmlns:inkscape="http://www.inkscape.org/namespaces/inkscape"
   xmlns:sodipodi="http://sodipodi.sourceforge.net/DTD/sodipodi-0.dtd"
   xmlns="http://www.w3.org/2000/svg"
   xmlns:svg="http://www.w3.org/2000/svg"><defs
     id="defs7" /><sodipodi:namedview
     id="namedview5"
     pagecolor="#ffffff"
     bordercolor="#000000"
     borderopacity="0.25"
     inkscape:showpageshadow="2"
     inkscape:pageopacity="0.0"
     inkscape:pagecheckerboard="0"
     inkscape:deskcolor="#d1d1d1"
     showgrid="false" /><path
     d="M 15.45,7 14,5.551 V 2 C 14,1.45 13.55,1 13,1 H 12 C 11.45,1 11,1.45 11,2 V 2.553 L 9,0.555 C 8.727,0.297 8.477,0 8,0 7.523,0 7.273,0.297 7,0.555 L 0.55,7 C 0.238,7.325 0,7.562 0,8 0,8.563 0.432,9 1,9 h 1 v 6 c 0,0.55 0.45,1 1,1 h 3 v -5 c 0,-0.55 0.45,-1 1,-1 h 2 c 0.55,0 1,0.45 1,1 v 5 h 3 c 0.55,0 1,-0.45 1,-1 V 9 h 1 C 15.568,9 16,8.563 16,8 16,7.562 15.762,7.325 15.45,7 Z"
     id="path2"
     style="fill:#ffffff" /></svg>
