<?xml version="1.0" encoding="UTF-8" standalone="no"?>
<svg
   height="16"
   id="Layer_1"
   version="1.1"
   viewBox="0 0 16 16"
   width="16"
   xml:space="preserve"
   sodipodi:docname="126573_location_map_pin_gps_icon.svg"
   xmlns:inkscape="http://www.inkscape.org/namespaces/inkscape"
   xmlns:sodipodi="http://sodipodi.sourceforge.net/DTD/sodipodi-0.dtd"
   xmlns="http://www.w3.org/2000/svg"
   xmlns:svg="http://www.w3.org/2000/svg"><defs
     id="defs190" /><sodipodi:namedview
     id="namedview188"
     pagecolor="#ffffff"
     bordercolor="#000000"
     borderopacity="0.25"
     inkscape:showpageshadow="2"
     inkscape:pageopacity="0.0"
     inkscape:pagecheckerboard="0"
     inkscape:deskcolor="#d1d1d1"
     showgrid="false" /><path
     d="M 8,0 C 4.687,0 2,2.687 2,6 2,9.854 6.321,14.663 7,15.398 7.281,15.703 7.516,16 8,16 8.484,16 8.719,15.703 9,15.398 9.679,14.663 14,9.854 14,6 14,2.687 11.313,0 8,0 Z M 8,10 C 5.791,10 4,8.209 4,6 4,3.791 5.791,2 8,2 c 2.209,0 4,1.791 4,4 0,2.209 -1.791,4 -4,4 z M 8,4 C 6.896,4 6,4.896 6,6 6,7.104 6.896,8 8,8 9.104,8 10,7.104 10,6 10,4.896 9.104,4 8,4 Z"
     id="path185"
     style="fill:#ffffff" /></svg>
