<?xml version="1.0" encoding="UTF-8" standalone="no"?>
<svg
   viewBox="0 0 50 50"
   width="50"
   height="50"
   version="1.1"
   id="svg147249"
   sodipodi:docname="icons8-signal-app.svg"
   xmlns:inkscape="http://www.inkscape.org/namespaces/inkscape"
   xmlns:sodipodi="http://sodipodi.sourceforge.net/DTD/sodipodi-0.dtd"
   xmlns="http://www.w3.org/2000/svg"
   xmlns:svg="http://www.w3.org/2000/svg">
  <defs
     id="defs147253" />
  <sodipodi:namedview
     id="namedview147251"
     pagecolor="#ffffff"
     bordercolor="#000000"
     borderopacity="0.25"
     inkscape:showpageshadow="2"
     inkscape:pageopacity="0.0"
     inkscape:pagecheckerboard="0"
     inkscape:deskcolor="#d1d1d1"
     showgrid="false" />
  <path
     d="m 25,2 -0.21875,0.00195 0.01563,2 L 25,4 c 1.529,0 3.054203,0.1651875 4.533203,0.4921875 l 0.433594,-1.953125 C 28.345797,2.1810625 26.674,2 25,2 Z m -2.304688,0.1132812 c -1.739999,0.1740001 -3.453656,0.547375 -5.097656,1.109375 l 0.644532,1.8925782 c 1.498999,-0.513 3.065343,-0.8527188 4.652343,-1.0117188 z m 9.289063,0.9726563 -0.607422,1.9042969 c 1.517,0.486 2.972125,1.1467968 4.328125,1.9667968 l 1.035156,-1.7109374 c -1.49,-0.901 -3.090859,-1.6271563 -4.755859,-2.1601563 z m -16.335937,0.90625 c -1.597,0.719 -3.102563,1.6225469 -4.476563,2.6855469 l 1.222656,1.5820312 c 1.251,-0.968 2.621172,-1.7903125 4.076172,-2.4453125 z m 22.828124,2.4199219 -1.191406,1.6074218 c 1.281,0.951 2.442266,2.0486718 3.447266,3.2636718 l 1.541016,-1.273437 C 41.165437,8.6707656 39.887563,7.4591094 38.476562,6.4121094 Z M 25,7 C 15.626,7 8,14.178 8,23 c 0,5.129 2.606,9.9265 7,12.9375 V 41 c 0,0.357 0.19,0.686234 0.5,0.865234 C 15.654,41.954234 15.827,42 16,42 c 0.172,0 0.344047,-0.04477 0.498047,-0.134766 l 5.431641,-3.126953 C 22.939688,38.912281 23.972,39 25,39 34.374,39 42,31.822 42,23 42,14.178 34.374,7 25,7 Z M 9.578125,8.0371094 c -1.283,1.205 -2.4106094,2.5575316 -3.3496094,4.0195316 l 1.6835938,1.080078 c 0.851,-1.325 1.8721562,-2.550578 3.0351566,-3.6425784 z m 33.951172,3.6523436 -1.660156,1.115235 c 0.888,1.321 1.60014,2.743562 2.11914,4.226562 l 1.890625,-0.660156 c -0.576,-1.644 -1.367609,-3.218641 -2.349609,-4.681641 z M 5.1855469,13.878906 c -0.798,1.572 -1.3850469,3.23436 -1.7480469,4.94336 l 1.9570312,0.416015 c 0.326,-1.54 0.8552188,-3.038078 1.5742188,-4.455078 z m 41.2812501,4.513672 -1.947266,0.457031 C 44.838531,20.202609 45,21.6 45,23 c 0,0.184 -0.0038,0.366828 -0.0098,0.548828 l 2,0.06055 C 46.996234,23.407375 47,23.204 47,23 47,21.445 46.819797,19.895578 46.466797,18.392578 Z M 3.109375,20.900391 C 3.037375,21.595391 3,22.301 3,23 c 0,1.052 0.082094,2.109578 0.2460938,3.142578 l 1.9765624,-0.3125 C 5.0756563,24.899078 5,23.948 5,23 5,22.37 5.0336563,21.733422 5.0976562,21.107422 Z M 44.835938,25.4375 c -0.211001,1.563 -0.628235,3.095641 -1.240235,4.556641 l 1.845703,0.773437 c 0.679,-1.623 1.143953,-3.3265 1.376953,-5.0625 z M 5.6152344,27.683594 3.6835938,28.199219 c 0.45,1.688 1.1211406,3.320609 1.9941406,4.849609 l 1.7363281,-0.992187 c -0.787,-1.38 -1.3918281,-2.851047 -1.7988281,-4.373047 z m 37.1601566,4.019531 c -0.752,1.38 -1.682532,2.674703 -2.769532,3.845703 l 1.466797,1.359375 c 1.199,-1.293 2.226594,-2.723047 3.058594,-4.248047 z M 8.4375,33.65625 6.8105469,34.818359 c 0.932,1.307 2.0203281,2.511938 3.2363281,3.585938 l 0.410156,4.023437 1.992188,-0.203125 -0.453125,-4.417968 c -0.027,-0.257 -0.151657,-0.493157 -0.347656,-0.660157 C 10.433437,36.113484 9.3535,34.93925 8.4375,33.65625 Z m 30.208984,3.220703 c -1.18,1.048 -2.49339,1.960938 -3.90039,2.710938 l 0.941406,1.763671 c 1.545,-0.823999 2.988109,-1.827468 4.287109,-2.980468 z m -5.623046,3.525391 c -1.461001,0.61 -3.000266,1.052453 -4.572266,1.314453 l 0.328125,1.972656 c 1.725,-0.287 3.412625,-0.772406 5.015625,-1.441406 z m -10.175782,1.488281 c -0.167,-0.016 -0.347812,0.01008 -0.507812,0.08008 l -1.013672,0.449219 0.8125,1.828125 0.771484,-0.34375 c 1.269,0.115 2.553922,0.124203 3.794922,0.0332 l -0.146484,-1.994141 c -1.217,0.088 -2.474938,0.07227 -3.710938,-0.05273 z M 19.5,43.232422 l -4.572266,2.027344 0.810547,1.828125 4.572266,-2.027344 z m -6.847656,0.980469 -1.990235,0.205078 0.34375,3.335937 c 0.033,0.319 0.216188,0.600719 0.492188,0.761719 0.155,0.09 0.327953,0.134766 0.501953,0.134766 0.138,0 0.275297,-0.02694 0.404297,-0.08594 l 1.505859,-0.667969 -0.810547,-1.828125 -0.246093,0.109375 z"
     id="path147247"
     style="fill:#ffffff" />
</svg>
