<?xml version="1.0" encoding="UTF-8" standalone="no"?>
<!-- Uploaded to: SVG Repo, www.svgrepo.com, Generator: SVG Repo Mixer Tools -->

<svg
   fill="#000000"
   height="800"
   width="800"
   version="1.1"
   id="Capa_1"
   viewBox="0 0 490 490"
   xml:space="preserve"
   sodipodi:docname="sms-svgrepo-com.svg"
   inkscape:export-filename="sms.svg"
   inkscape:export-xdpi="96"
   inkscape:export-ydpi="96"
   xmlns:inkscape="http://www.inkscape.org/namespaces/inkscape"
   xmlns:sodipodi="http://sodipodi.sourceforge.net/DTD/sodipodi-0.dtd"
   xmlns="http://www.w3.org/2000/svg"
   xmlns:svg="http://www.w3.org/2000/svg"><defs
   id="defs7" /><sodipodi:namedview
   id="namedview5"
   pagecolor="#ffffff"
   bordercolor="#000000"
   borderopacity="0.25"
   inkscape:showpageshadow="2"
   inkscape:pageopacity="0.0"
   inkscape:pagecheckerboard="0"
   inkscape:deskcolor="#d1d1d1"
   showgrid="false" />
<path
   d="M 384.547,31.26 H 105.453 C 47.313,31.26 0,79.606 0,139.016 v 106.739 c 0,59.411 47.313,107.756 105.453,107.756 H 281.861 L 410.103,458.74 V 350.266 C 456.489,338.453 490,295.745 490,245.755 V 139.016 C 490,79.606 442.687,31.26 384.547,31.26 Z M 112.84,238.413 c -12.486,0 -23.612,-2.722 -30.819,-6.624 l 5.264,-21.264 c 5.458,3.32 16.778,7.223 25.556,7.223 8.972,0 12.681,-3.125 12.681,-8 0,-4.89 -2.931,-7.223 -14.041,-10.931 -19.709,-6.639 -27.32,-17.361 -27.126,-28.681 0,-17.75 15.223,-31.208 38.82,-31.208 11.125,0 21.085,2.527 26.931,5.458 l -5.264,20.486 c -4.292,-2.348 -12.486,-5.473 -20.681,-5.473 -7.223,0 -11.32,2.931 -11.32,7.806 0,4.486 3.708,6.834 15.417,10.931 18.139,6.236 25.75,15.417 25.945,29.459 -0.001,17.749 -14.043,30.818 -41.363,30.818 z m 203.474,-1.944 H 287.439 V 184.58 c 0,-13.862 -4.501,-21.862 -14.056,-21.862 -6.819,0 -11.709,4.68 -13.653,10.348 -0.778,2.138 -1.166,5.264 -1.166,7.611 v 55.792 H 229.689 V 183.01 c 0,-12.098 -4.292,-20.292 -13.668,-20.292 -7.596,0 -12.098,5.862 -13.847,10.737 -0.972,2.333 -1.166,5.069 -1.166,7.417 v 55.598 h -28.875 v -64.973 c 0,-11.888 -0.389,-22.042 -0.778,-30.431 h 24.973 l 1.361,12.875 h 0.583 c 4.097,-6.041 12.486,-15.013 28.875,-15.013 12.292,0 22.042,6.236 26.139,16.18 h 0.389 c 3.514,-4.875 7.806,-8.778 12.292,-11.499 5.279,-3.125 11.125,-4.68 18.154,-4.68 18.333,0 32.195,12.875 32.195,41.347 v 56.193 z m 48.928,1.944 c -12.486,0 -23.612,-2.722 -30.819,-6.624 l 5.264,-21.264 c 5.458,3.32 16.778,7.223 25.556,7.223 8.972,0 12.681,-3.125 12.681,-8 0,-4.89 -2.931,-7.223 -14.042,-10.931 -19.709,-6.639 -27.32,-17.361 -27.126,-28.681 0,-17.75 15.223,-31.208 38.82,-31.208 11.125,0 21.07,2.527 26.931,5.458 l -5.264,20.486 c -4.292,-2.348 -12.486,-5.473 -20.681,-5.473 -7.223,0 -11.32,2.931 -11.32,7.806 0,4.486 3.708,6.834 15.417,10.931 18.139,6.236 25.75,15.417 25.945,29.459 0,17.749 -14.042,30.818 -41.362,30.818 z"
   id="path2"
   style="fill:#ffffff" />
</svg>
