<?xml version="1.0" encoding="UTF-8" standalone="no"?>
<svg
   viewBox="0 0 30 30"
   width="30"
   height="30"
   version="1.1"
   id="svg147214"
   sodipodi:docname="icons8-whatsapp.svg"
   xmlns:inkscape="http://www.inkscape.org/namespaces/inkscape"
   xmlns:sodipodi="http://sodipodi.sourceforge.net/DTD/sodipodi-0.dtd"
   xmlns="http://www.w3.org/2000/svg"
   xmlns:svg="http://www.w3.org/2000/svg">
  <defs
     id="defs147218" />
  <sodipodi:namedview
     id="namedview147216"
     pagecolor="#ffffff"
     bordercolor="#000000"
     borderopacity="0.25"
     inkscape:showpageshadow="2"
     inkscape:pageopacity="0.0"
     inkscape:pagecheckerboard="0"
     inkscape:deskcolor="#d1d1d1"
     showgrid="false" />
  <path
     d="M 15,3 C 8.373,3 3,8.373 3,15 c 0,2.251208 0.6323415,4.350068 1.7109375,6.150391 L 3.1074219,27 9.0820312,25.431641 C 10.829354,26.425062 12.84649,27 15,27 21.627,27 27,21.627 27,15 27,8.373 21.627,3 15,3 Z m -4.107422,6.4023438 c 0.195,0 0.395359,-0.00119 0.56836,0.00781 0.214,0.005 0.446921,0.020672 0.669921,0.5136719 0.265,0.5860003 0.842016,2.0560783 0.916016,2.2050783 0.074,0.149 0.126438,0.324531 0.02344,0.519532 -0.098,0.199999 -0.148968,0.321046 -0.292968,0.498046 -0.149,0.172 -0.312266,0.385625 -0.447266,0.515625 -0.149,0.149 -0.302859,0.312375 -0.130859,0.609375 0.172,0.297 0.769344,1.270641 1.652343,2.056641 1.135,1.014 2.092626,1.325609 2.390626,1.474609 0.297999,0.149 0.470578,0.125782 0.642578,-0.07422 0.177,-0.195 0.743359,-0.86411 0.943359,-1.16211 0.195,-0.298 0.394063,-0.246437 0.664063,-0.148437 0.274,0.098 1.735203,0.817797 2.033203,0.966797 0.298,0.149 0.493359,0.22275 0.568359,0.34375 0.077,0.125 0.07708,0.720062 -0.169922,1.414062 -0.247,0.693 -1.459906,1.363156 -2.003906,1.410156 -0.549,0.051 -1.06136,0.246766 -3.56836,-0.740234 -3.023999,-1.191 -4.931078,-4.288281 -5.080078,-4.488281 -0.149,-0.195 -1.2109371,-1.610313 -1.2109371,-3.070313 0,-1.465 0.7681094,-2.182469 1.0371091,-2.4804689 0.274,-0.298 0.594922,-0.3710937 0.794922,-0.3710937 z"
     id="path147212"
     style="fill:#ffffff" />
</svg>
