<?xml version="1.0" encoding="utf-8"?>
<svg viewBox="0 0 55 55" width="60px" height="60px" xmlns="http://www.w3.org/2000/svg">
  <defs>
    <style type="text/css">
	.st0{fill:#ABD037;}
	.st1{fill:#FFFFFF;}
</style>
  </defs>
  <g transform="matrix(1, 0, 0, 1, 12.749063, 3.154999)">
    <path class="st0" d="M29.49,2.55C29.4,1.7,29.29,0.32,28.74,0c0,0,0.77,2.27-4.53,4.99c-6.62,3.4-17.38,5.15-20.14,6.88 C-0.13,14.51,0,17.57,0,17.57c0.96,2.09,2.11,3.95,2.11,3.95s0.72,1.1,1.22,2.51c0,0,0.26-2.49,3.68-4.51 c2.33-1.37,11.43-4.17,16.71-6.38c2.77-1.16,3.65-2.84,3.65-2.84C28.39,7.64,29.64,4.01,29.49,2.55z"/>
    <path class="st0" d="M24.46,18.45c0.21-1.25,1.32-3.21,1.63-4.06c0,0-0.33,1.04-3.5,2.24c-4.71,1.78-13.31,4.67-15.11,5.6 c-2.74,1.41-3.45,4.59-3.45,4.59c0.07,0.97,0.17,2.35-0.57,4.18c-1,2.47-0.71,1.16-1.55,3.78c0,0,0.9-1.69,3.68-3.07 c2.45-1.21,11.77-4.01,16.83-6.15c2.49-1.05,2.86-2.7,2.86-2.7C24.88,22.09,24.14,20.41,24.46,18.45z"/>
    <path class="st0" d="M0.59,40.86c-0.36,3.2,0.34,5.8,0.96,7.83c0,0,0.45-3.19,4.98-5.82c2.96-1.71,12.32-4.36,17.58-6.65 c2.77-1.21,3.52-3.01,3.52-3.01c0-0.51-0.01-1.02-0.05-1.55c-0.2-2.19-0.13-3.63-1.3-6.47c0,0-0.99,1.99-3.62,3.12 c-5.54,2.39-15.15,5.24-17.35,6.35c-3.51,1.77-4.57,4.89-4.57,4.89C0.66,39.94,0.62,40.53,0.59,40.86z"/>
  </g>
</svg>