<svg id="Layer_1" data-name="Layer 1" xmlns="http://www.w3.org/2000/svg" viewBox="0 0 99.12 95.66"><defs><style>.cls-1{fill:#aa99f7;}.cls-2{fill:#b7e62e;}.cls-3{fill:#ffb400;}.cls-4{fill:#8254ff;}.cls-5{fill:#9acd00;}.cls-6{fill:#ff8b00;}.cls-7{fill:#652bff;}.cls-8{fill:#73a600;}.cls-9{fill:#ff2e00;}</style></defs><title>OrchidsIconStackedColorOnWhite</title><path class="cls-1" d="M68.58,25.11a38.21,38.21,0,0,1,5.25,3.69c0-.09,0-.18,0-.27A25.91,25.91,0,0,0,73.59,25a24,24,0,0,0-1.2-4.74,4.47,4.47,0,0,0-.19-.46C68.4,10.66,49.81,0,49.81,0S34.13,9.42,28.13,19.33A15.33,15.33,0,0,0,26,24.9a24.38,24.38,0,0,0-.27,3.54c0,.15,0,.29,0,.44A37.42,37.42,0,0,1,68.58,25.11Z"/><path class="cls-2" d="M93.59,58.33a16.12,16.12,0,0,0-4.1-5.39A24.77,24.77,0,0,0,86.66,51,37.37,37.37,0,0,1,62.51,92.66a24.32,24.32,0,0,0,3.09,1.49,23.52,23.52,0,0,0,4.71,1.34,11.27,11.27,0,0,0,1.2.14c10,.68,27.61-9.58,27.61-9.58S98.82,68.59,93.59,58.33Z"/><path class="cls-3" d="M13,50.83l-.31.16a24.12,24.12,0,0,0-2.94,2,23.56,23.56,0,0,0-3.51,3.4c-.07.08-.12.16-.18.24C-.06,64.36,0,86.07,0,86.07s15.87,8.8,27.44,9.1a15.32,15.32,0,0,0,6.05-.89,24.8,24.8,0,0,0,3.21-1.54l.24-.15A37.37,37.37,0,0,1,13,50.83Z"/><path class="cls-4" d="M61.71,37a23.46,23.46,0,0,1,7.06,6.26A24,24,0,0,0,73.83,28.8a38.21,38.21,0,0,0-5.25-3.69A37.42,37.42,0,0,0,25.7,28.88a23.92,23.92,0,0,0,5.12,14.45A23.7,23.7,0,0,1,61.71,37Z"/><path class="cls-5" d="M82.19,76.24A37.24,37.24,0,0,0,86.66,51l-.1-.06a24,24,0,0,0-15.07-3A23.69,23.69,0,0,1,52.28,81,23.93,23.93,0,0,0,62.4,92.6l.11.06A37.25,37.25,0,0,0,82.19,76.24Z"/><path class="cls-6" d="M28.09,48A24,24,0,0,0,13,50.83,37.37,37.37,0,0,0,36.94,92.59,24,24,0,0,0,47,81,23.69,23.69,0,0,1,28.09,48Z"/><path class="cls-7" d="M55,48.49a10.34,10.34,0,0,1,3,2.59c.18-.06.38-.11.56-.18a24.2,24.2,0,0,0,10.21-7.66A23.46,23.46,0,0,0,61.71,37a23.7,23.7,0,0,0-30.89,6.35,24.23,24.23,0,0,0,10.06,7.54c.25.1.53.15.78.24A10.36,10.36,0,0,1,55,48.49Z"/><path class="cls-8" d="M70.32,69.36a23.67,23.67,0,0,0,1.17-21.47,24.13,24.13,0,0,0-11.95,5l-.29.26a10.35,10.35,0,0,1-8.5,14.66c0,.13-.06.25-.08.38h0A24.08,24.08,0,0,0,52.28,81,23.65,23.65,0,0,0,70.32,69.36Z"/><path class="cls-9" d="M40.26,53.53c-.19-.16-.37-.34-.56-.49a24.21,24.21,0,0,0-11.61-5A23.69,23.69,0,0,0,47,81a24.16,24.16,0,0,0,1.56-12.63c0-.21-.1-.41-.13-.61a10.32,10.32,0,0,1-8.13-14.23Z"/></svg>