<svg xmlns="http://www.w3.org/2000/svg" xmlns:xlink="http://www.w3.org/1999/xlink" viewBox="0 0 205.37 65.7"><defs><style>.cls-1{fill:none;}.cls-2{clip-path:url(#clip-path);}.cls-3{fill:#aa99f7;}.cls-4{fill:#b7e62e;}.cls-5{fill:#ffb400;}.cls-6{fill:#8254ff;}.cls-7{fill:#9acd00;}.cls-8{fill:#ff8b00;}.cls-9{fill:#652bff;}.cls-10{fill:#73a600;}.cls-11{fill:#ff2e00;}.cls-12{fill:#fff;}</style><clipPath id="clip-path"><rect class="cls-1" width="205.37" height="65.7"/></clipPath></defs><g id="Layer_2" data-name="Layer 2"><g id="Layer_5" data-name="Layer 5"><g class="cls-2"><path class="cls-3" d="M31.84,11.66a17.15,17.15,0,0,1,2.44,1.71v-.13a11.21,11.21,0,0,0-.12-1.64,10.74,10.74,0,0,0-.55-2.2l-.09-.21C31.75,5,23.13,0,23.13,0S15.84,4.37,13.06,9a7.1,7.1,0,0,0-1,2.59,11.24,11.24,0,0,0-.13,1.65c0,.06,0,.13,0,.2a17.37,17.37,0,0,1,19.91-1.75"/><path class="cls-4" d="M43.45,27.08a7.48,7.48,0,0,0-1.9-2.5,10.22,10.22,0,0,0-1.32-.9A17.34,17.34,0,0,1,29,43a11.39,11.39,0,0,0,3.62,1.31,5,5,0,0,0,.56.07C37.83,44.72,46,40,46,40s-.14-8.11-2.57-12.87"/><path class="cls-5" d="M6,23.6l-.15.08a9.83,9.83,0,0,0-1.36.92,11.7,11.7,0,0,0-1.64,1.58.44.44,0,0,1-.08.11C0,29.88,0,40,0,40s7.37,4.09,12.74,4.22a7,7,0,0,0,2.81-.41A11.88,11.88,0,0,0,17,43.06l.11-.07a18.75,18.75,0,0,1-2.73-1.28A17.37,17.37,0,0,1,6,23.6"/><path class="cls-6" d="M28.65,17.17a10.84,10.84,0,0,1,3.28,2.91,11.21,11.21,0,0,0,2.35-6.71,17.15,17.15,0,0,0-2.44-1.71,17.37,17.37,0,0,0-19.91,1.75,11.11,11.11,0,0,0,2.38,6.71,11,11,0,0,1,14.34-2.95"/><path class="cls-7" d="M38.16,35.39a17.28,17.28,0,0,0,2.07-11.71l0,0a11,11,0,0,0-7-1.41,11,11,0,0,1-8.92,15.38A11.1,11.1,0,0,0,29,43L29,43a17.3,17.3,0,0,0,9.14-7.63"/><path class="cls-8" d="M13,22.3a11.15,11.15,0,0,0-7,1.3,17.37,17.37,0,0,0,8.38,18.11A18.75,18.75,0,0,0,17.15,43a11.11,11.11,0,0,0,4.65-5.38,11.13,11.13,0,0,1-4.19-1.41A11,11,0,0,1,13,22.3"/><path class="cls-9" d="M25.55,22.51a4.89,4.89,0,0,1,1.38,1.21l.26-.09a11.29,11.29,0,0,0,4.74-3.55,10.84,10.84,0,0,0-3.28-2.91,11,11,0,0,0-14.34,2.95A11.17,11.17,0,0,0,19,23.61c.12.05.24.08.36.12a4.82,4.82,0,0,1,6.21-1.22"/><path class="cls-10" d="M32.65,32.2a11,11,0,0,0,.54-10,11.2,11.2,0,0,0-5.55,2.31l-.13.12a4.82,4.82,0,0,1-4,6.81c0,.06,0,.12,0,.18h0a11.22,11.22,0,0,0,.75,6,11,11,0,0,0,8.38-5.42"/><path class="cls-11" d="M18.69,24.85l-.26-.23A11.26,11.26,0,0,0,13,22.31,11,11,0,0,0,17.61,36.2a11.13,11.13,0,0,0,4.19,1.41,11.18,11.18,0,0,0,.72-5.87,2.8,2.8,0,0,0-.06-.28,5,5,0,0,1-1.75-.6,4.82,4.82,0,0,1-2-6"/><path class="cls-12" d="M57.94,27.69a9.24,9.24,0,1,0,18.48-.05,9.24,9.24,0,1,0-18.48,0Zm-3.18-.09a12.44,12.44,0,0,1,24.88,0A12.1,12.1,0,0,1,67.18,40,12.09,12.09,0,0,1,54.76,27.64Z"/><path class="cls-12" d="M95,15.27v3.18h-.3c-4.53,0-7.06,2.83-7.06,8.15V39.36H84.48V24.85c0-6.81,5.42-9.58,10.54-9.58"/><path class="cls-12" d="M119.51,31.43A12.46,12.46,0,0,1,95.2,27.64,12.43,12.43,0,0,1,119.51,24H116.2a9.29,9.29,0,0,0-15.12-3.14,9.6,9.6,0,0,0-2.66,6.75A9.11,9.11,0,0,0,107.66,37a8.83,8.83,0,0,0,8.5-5.58Z"/><path class="cls-12" d="M123.92,7.12h3.22V19.76c1.44-3.1,5.06-4.58,8.37-4.49,3.7,0,6.14,1.17,7.75,3.22s2.23,4.88,2.23,8.24V39.36h-3.18V26.86a10.07,10.07,0,0,0-1.7-6.19c-1.27-1.53-3.1-2.4-5.89-2.4a7.29,7.29,0,0,0-5.7,2.31A8,8,0,0,0,127.14,26V39.36h-3.22Z"/><path class="cls-12" d="M151.67,15.92h3.23V39.36h-3.23Zm0-8.8h3.23v4.49h-3.23Z"/><path class="cls-12" d="M201.52,21.8a3.66,3.66,0,0,0-4-3.87c-2.58,0-4.14,1.74-4.06,3.79.09,2.22,1.79,3.13,4.62,4,3.36.92,7.11,1.88,7.28,6.89.17,4.31-3.31,7.45-7.76,7.45-3.79,0-8-2.4-8-7.32h3.19a4.64,4.64,0,0,0,4.88,4.66,4.34,4.34,0,0,0,4.53-4.4c-.09-2.66-1.83-3.75-5.89-4.93-3.35-1-6-2.35-6-6.05,0-4.23,3.35-6.71,7.32-6.71,3.27,0,6.93,1.78,7.15,6.53Z"/><path class="cls-12" d="M185.09,27.64V7.12h-3.22v20h0c0,.17,0,.34,0,.51h0a9.24,9.24,0,1,1-18.48.05v-.05A9.27,9.27,0,0,1,180,21.85V17.5a12.56,12.56,0,0,0-7.35-2.23A12.12,12.12,0,0,0,160.21,27.6v0a12.44,12.44,0,0,0,24.88,0Z"/><path class="cls-12" d="M115.1,57.79v2.3h0a1.15,1.15,0,0,1,.57-.54,2.16,2.16,0,0,1,.86-.17,2.13,2.13,0,0,1,.9.19,1.81,1.81,0,0,1,.64.52,2,2,0,0,1,.38.75,2.92,2.92,0,0,1,.13.9,3.37,3.37,0,0,1-.12.9,2.17,2.17,0,0,1-.38.74,1.74,1.74,0,0,1-.64.49,2.13,2.13,0,0,1-.9.18l-.36,0a2.08,2.08,0,0,1-.41-.11,2,2,0,0,1-.37-.21,1.1,1.1,0,0,1-.3-.34h0V64h-.73V57.79Zm2.64,3.29a1.48,1.48,0,0,0-.25-.54,1.19,1.19,0,0,0-.43-.37,1.32,1.32,0,0,0-.62-.14,1.22,1.22,0,0,0-.63.15,1.31,1.31,0,0,0-.42.39,1.48,1.48,0,0,0-.24.54,2.48,2.48,0,0,0-.07.61,2.73,2.73,0,0,0,.07.64,1.91,1.91,0,0,0,.25.54,1.23,1.23,0,0,0,.44.37,1.3,1.3,0,0,0,.65.14,1.33,1.33,0,0,0,.63-.14,1.18,1.18,0,0,0,.41-.39,1.69,1.69,0,0,0,.23-.55,3.48,3.48,0,0,0,.07-.64,2,2,0,0,0-.09-.61"/><path class="cls-12" d="M121.22,64.56a4.88,4.88,0,0,1-.25.55,1.88,1.88,0,0,1-.28.37.9.9,0,0,1-.34.2,1.09,1.09,0,0,1-.42.07l-.26,0a1,1,0,0,1-.25-.06V65a1,1,0,0,0,.22.07l.21,0a.68.68,0,0,0,.38-.11.62.62,0,0,0,.22-.3l.31-.76L119,59.49h.83l1.31,3.66h0l1.25-3.66h.78Z"/><path class="cls-12" d="M138.71,58.69c0-2.34,1.45-3.8,3.27-3.8a3.22,3.22,0,0,1,2.66,1.5,3.21,3.21,0,0,1,2.68-1.5c1.83,0,3.26,1.46,3.26,3.8v5h-1.23V58.6a2.07,2.07,0,1,0-4.07,0v5.12H144V58.6a2.08,2.08,0,1,0-4.09,0v5.12h-1.23Z"/><path class="cls-12" d="M163.76,56.23a4.34,4.34,0,0,1,6.27,0,4.59,4.59,0,0,1,0,6.4,4.36,4.36,0,0,1-6.27,0,4.56,4.56,0,0,1-1.3-3.21,4.52,4.52,0,0,1,1.3-3.19m3.13,6.49a3.3,3.3,0,1,0-3.13-3.3,3.21,3.21,0,0,0,3.13,3.3"/><path class="cls-12" d="M180.36,50.69v8.75a3.24,3.24,0,1,1-3.24-3.31,3.2,3.2,0,0,1,2.38,1.07V55.62a4.37,4.37,0,0,0-2.36-.71,4.43,4.43,0,0,0-4.44,4.52,4.54,4.54,0,0,0,1.3,3.2A4.32,4.32,0,0,0,177.12,64a4.53,4.53,0,0,0,3.72-2,5.44,5.44,0,0,0,.71-3.26v-8Z"/><path class="cls-12" d="M160.1,56.23A4.29,4.29,0,0,0,157,54.91a4.34,4.34,0,0,0-2.38.68V57.2A3.2,3.2,0,0,1,157,56.13a3.31,3.31,0,1,1-3.24,3.31V50.69h-1.19v7.7c0,.2,0,.4,0,.58,0,3.07,1.91,5,4.45,5a4.34,4.34,0,0,0,3.12-1.33,4.59,4.59,0,0,0,0-6.4"/><path class="cls-12" d="M184.44,60.49h0a4.16,4.16,0,0,1-.19-1.2,3,3,0,0,1,.33-1.38h0a3.21,3.21,0,0,1,2.89-1.79,3.26,3.26,0,0,1,3.16,2.57h-5.56v1.18h6.82v-.45a4.49,4.49,0,0,0-1.29-3.19,4.38,4.38,0,0,0-6.27,0,4.53,4.53,0,0,0-1.3,3.19,4.59,4.59,0,0,0,1.3,3.22A4.34,4.34,0,0,0,187.47,64a4.28,4.28,0,0,0,2.66-.91h0l.13-.11.12-.1a4.52,4.52,0,0,0,1.2-1.65l-1.11-.45a4,4,0,0,1-.92,1.21l-.22.16-.15.11a3.15,3.15,0,0,1-1.72.52,3.12,3.12,0,0,1-2.91-2h0s-.05-.12-.11-.31"/><path class="cls-12" d="M129.63,60.49h0a3.84,3.84,0,0,1-.19-1.2,3,3,0,0,1,.33-1.38h0a3.2,3.2,0,0,1,2.89-1.79,3.27,3.27,0,0,1,3.16,2.57h-5.56v1.18h6.82v-.45a4.46,4.46,0,0,0-1.3-3.19,4.33,4.33,0,0,0-3.12-1.32,4.38,4.38,0,0,0-3.15,1.32,4.53,4.53,0,0,0-1.29,3.19,4.58,4.58,0,0,0,1.29,3.22A4.38,4.38,0,0,0,132.67,64a4.28,4.28,0,0,0,2.66-.91h0l.12-.11.13-.1a4.52,4.52,0,0,0,1.2-1.65l-1.12-.45a3.69,3.69,0,0,1-.92,1.21l-.21.16a.91.91,0,0,1-.16.11,3.12,3.12,0,0,1-4.62-1.43h0a2.33,2.33,0,0,1-.12-.31"/><path class="cls-12" d="M194.58,60.49h0a3.8,3.8,0,0,1-.2-1.2,3,3,0,0,1,.33-1.38h0a3.21,3.21,0,0,1,2.89-1.79,3.26,3.26,0,0,1,3.16,2.57h-5.56v1.18H202v-.45a4.5,4.5,0,0,0-1.3-3.19,4.38,4.38,0,0,0-6.27,0,4.53,4.53,0,0,0-1.3,3.19,4.59,4.59,0,0,0,1.3,3.22,4.38,4.38,0,0,0,5.81.41h0a1.27,1.27,0,0,0,.13-.11l.12-.1a4.52,4.52,0,0,0,1.2-1.65l-1.11-.45A4,4,0,0,1,199.7,62l-.22.16-.15.11a3.13,3.13,0,0,1-4.63-1.43h0s-.05-.12-.11-.31"/><path class="cls-12" d="M202.82,55.56a.74.74,0,0,1,.17-.25.78.78,0,0,1,.26-.17.77.77,0,0,1,.3-.06.83.83,0,0,1,.32.06.85.85,0,0,1,.25.17.74.74,0,0,1,.17.25.81.81,0,0,1,.06.31.83.83,0,0,1-.06.32.74.74,0,0,1-.17.25.7.7,0,0,1-.25.17.83.83,0,0,1-.32.06.77.77,0,0,1-.3-.06.65.65,0,0,1-.26-.17.74.74,0,0,1-.17-.25.68.68,0,0,1-.07-.32.67.67,0,0,1,.07-.31m.13.58a.55.55,0,0,0,.14.22.46.46,0,0,0,.21.14.54.54,0,0,0,.25.06.55.55,0,0,0,.26-.06.6.6,0,0,0,.21-.14.55.55,0,0,0,.14-.22.76.76,0,0,0,.05-.27.75.75,0,0,0-.05-.26.55.55,0,0,0-.14-.22.6.6,0,0,0-.21-.14.55.55,0,0,0-.26,0,.53.53,0,0,0-.25,0,.46.46,0,0,0-.21.14.55.55,0,0,0-.14.22.58.58,0,0,0,0,.26.59.59,0,0,0,0,.27m.66-.73a.33.33,0,0,1,.24.07.25.25,0,0,1,.08.2.21.21,0,0,1-.07.18.33.33,0,0,1-.17.07l.26.41h-.15l-.26-.4h-.15v.4h-.14v-.93Zm-.07.41h.09l.08,0,.06,0a.2.2,0,0,0,0-.09.12.12,0,0,0,0-.07.12.12,0,0,0-.05-.05l-.06,0h-.27v.29Z"/></g></g></g></svg>